<svg width="30.477051" height="30.978943" viewBox="0 0 30.4771 30.9789" fill="none" xmlns="http://www.w3.org/2000/svg" xmlns:xlink="http://www.w3.org/1999/xlink">
	<desc>
			Created with Pixso.
	</desc>
	<defs/>
	<path id="path" d="M4.72 6.79L0 2.06L2.06 0L6.79 4.72L29.01 4.72C29.82 4.72 30.47 5.38 30.47 6.18C30.47 6.32 30.45 6.47 30.41 6.6L26.91 18.27C26.73 18.88 26.16 19.31 25.51 19.31L7.64 19.31L7.64 22.22L23.68 22.22L23.68 25.14L6.18 25.14C5.38 25.14 4.72 24.49 4.72 23.68L4.72 6.79ZM6.91 30.97C5.7 30.97 4.72 29.99 4.72 28.79C4.72 27.58 5.7 26.6 6.91 26.6C8.12 26.6 9.1 27.58 9.1 28.79C9.1 29.99 8.12 30.97 6.91 30.97ZM24.41 30.97C23.2 30.97 22.22 29.99 22.22 28.79C22.22 27.58 23.2 26.6 24.41 26.6C25.62 26.6 26.6 27.58 26.6 28.79C26.6 29.99 25.62 30.97 24.41 30.97Z" fill="#FFFFFF" fill-opacity="1.000000" fill-rule="nonzero"/>
</svg>
